<svg xmlns="http://www.w3.org/2000/svg" viewBox="0 0 24 24" role="img" aria-label="NetMetric Logo - High Performance .NET 9 Metrics Library" focusable="false" class="fill-black dark:fill-white"><title>NetMetric Logo</title><desc>Logo of NetMetric, a high performance .NET 9 metrics and monitoring library</desc><path d="M4 0h16a4 4 0 014 4v16a4 4 0 01-4 4h-16a4 4 0 01-4-4v-16a4 4 0 014-4m1 18a1 1 0 002 0l0-4a1 1 0 00-2 0m4 4a1 1 0 002 0l0-9a1 1 0 00-2 0m4 9a1 1 0 002 0l0-12a1 1 0 00-2 0m4 12a1 1 0 002 0l0-7a1 1 0 00-2 0"></path></svg>